<?xml version="1.0" encoding="UTF-8"?>
<svg id="Layer_2" data-name="Layer 2" xmlns="http://www.w3.org/2000/svg" xmlns:xlink="http://www.w3.org/1999/xlink" viewBox="0 0 234.8 241.13">
  <defs>
    <style>
      .cls-1 {
        fill: #e09858;
      }

      .cls-1, .cls-2, .cls-3, .cls-4, .cls-5, .cls-6, .cls-7, .cls-8, .cls-9, .cls-10, .cls-11, .cls-12, .cls-13, .cls-14, .cls-15, .cls-16, .cls-17, .cls-18, .cls-19, .cls-20 {
        fill-rule: evenodd;
      }

      .cls-2 {
        fill: url(#GradientFill_1);
      }

      .cls-3 {
        fill: url(#GradientFill_2);
      }

      .cls-4 {
        fill: url(#GradientFill_5);
      }

      .cls-5 {
        fill: #55c2b8;
      }

      .cls-6 {
        fill: #68c8c4;
      }

      .cls-7 {
        fill: #da7441;
      }

      .cls-8 {
        fill: #3b9199;
      }

      .cls-9 {
        fill: #f1b35b;
      }

      .cls-10 {
        fill: #ec8a46;
      }

      .cls-11 {
        fill: #479eaf;
      }

      .cls-12 {
        fill: url(#GradientFill_4);
      }

      .cls-13 {
        fill: #37a1a9;
      }

      .cls-14 {
        fill: #0c7676;
      }

      .cls-15 {
        fill: #e28852;
      }

      .cls-16 {
        fill: #57b9c3;
      }

      .cls-17 {
        fill: #318394;
      }

      .cls-18 {
        fill: #3db4b8;
      }

      .cls-19 {
        fill: #30909d;
      }

      .cls-20 {
        fill: #14747f;
      }
    </style>
    <linearGradient id="GradientFill_1" data-name="GradientFill 1" x1="92.88" y1="32.44" x2="92.88" y2="90.77" gradientUnits="userSpaceOnUse">
      <stop offset="0" stop-color="#30bebc"/>
      <stop offset="1" stop-color="#178d9b"/>
    </linearGradient>
    <linearGradient id="GradientFill_2" data-name="GradientFill 2" x1="86.28" y1="81.12" x2="86.28" y2="240.01" gradientUnits="userSpaceOnUse">
      <stop offset="0" stop-color="#24a7b1"/>
      <stop offset="1" stop-color="#24a7b1"/>
    </linearGradient>
    <linearGradient id="GradientFill_4" data-name="GradientFill 4" x1="152.35" y1="-431.82" x2="152.35" y2="612.12" gradientUnits="userSpaceOnUse">
      <stop offset="0" stop-color="#ea9123"/>
      <stop offset=".56" stop-color="#ef9a29"/>
      <stop offset=".81" stop-color="#ec5c30"/>
      <stop offset="1" stop-color="#d64234"/>
    </linearGradient>
    <linearGradient id="GradientFill_5" data-name="GradientFill 5" x1="210.14" y1="9.44" x2="210.14" y2="201.29" gradientUnits="userSpaceOnUse">
      <stop offset="0" stop-color="#ea9123"/>
      <stop offset="1" stop-color="#dd6826"/>
    </linearGradient>
  </defs>
  <g id="Layer_1-2" data-name="Layer 1">
    <g>
      <path class="cls-2" d="m154.5,24.59c2.05,1.75,1.54,3.12-1.24,4.52,0,0,0,0,0,0-4.41,2.35-8.81,4.7-13.22,7.06,0,0,0,0,0,0-.31.22-.64.43-.94.66-5.39,4.15-10.41,4.97-15.72-.54C89.39,1.03,19.19,64.81,85.66,85.71c-1.86,1.51-4.89,1.1-6.99,1.64-8.84,2.24-17.06,5.38-25.21,9.24-1.26.6-1.65,2-2.95,2.4C-11.48,43.52,79.93-42.69,154.5,24.59Z"/>
      <path class="cls-3" d="m22.63,127.83c30.85-54.68,87.46-45.06,134.24-42.3,4.3.04,4.32.03,2.66,3.94-2.12,4.99-4.29,9.96-6.43,14.95-.58,1.48-.88,1.84-1.29,3.28-.54-2.8-3.09-2.19-4.69-2.28-23.09-1.28-45.62,1.39-67.27,9.94-.47.19-1.11.31-1.33.68-.45.73.42.65.76.88-29.44,9.04-48.28,37.9-35.8,68.67,13.5,22.76,35,28.55,59.46,28.01,8.04-.18,15.97-1.36,23.85-2.93.52.84.18,1.57-.26,2.3-6.63,5.98-14.68,9.62-22.61,13.36-10.89,5.14-22.19,9.24-34.03,11.67-14.7-4.54-27.83-11.7-38.49-22.99-.7-.74-1.29-1.59-1.93-2.38-2.89-2.7-5.22-5.8-6.98-9.34-6.95-9.69-9.79-20.77-10.37-32.43-.77-15.33,2.12-29.88,10.51-43.03Z"/>
      <path class="cls-7" d="m201.57,140.67c-.11,5.86-1.7,11.24-4.3,16.29-6.5,12.58-16.7,21.74-28.26,29.35-15.18,9.99-32.04,15.7-50.12,17.54-1.83.18-5.33,2.07-5.56-1.78-.2-3.32,3.1-1.75,4.78-1.99,34.02-4.87,60.83-20.94,79.04-50.51.88-1.43,1.54-2.99,2.29-4.5.72-1.46,1.43-2.93,2.14-4.4Z"/>
      <path class="cls-20" d="m151.82,107.7q-2.42,6.05-8.79,6.01c-19.59-.1-44.62-2.58-63.14,2.96-1.15.05-11.71,5.05-12.33,5.2.41-1.02,12.06-7.11,13-7.5,12.97-5.35,26.45-8.36,40.44-9.67,8.68-.81,17.29-.5,25.92-.16,1.96.08,5.08-.67,4.9,3.15Z"/>
      <path class="cls-19" d="m1.46,162.99c.64-27.42,10.71-50.29,32.72-67.33,1.14-.88,2.28-2.98,4.19-1.43,1.93,1.57,2.52,2.91-.14,4.99-20.03,15.73-31.63,36.19-34,61.72-.4,4.28-.28,8.53.22,12.78.12,1.03.38,2.46-.94,2.55-1.34.09-1.12-1.44-1.27-2.41-.53-3.59-.82-7.2-.78-10.87Z"/>
      <path class="cls-12" d="m211.77,66.41s0,0,0,0c3.25-4.9,6.5-9.8,9.84-14.84,1.78,1.83,2.16,3.59,2.44,5.38,29.11,85.19.24,165.94-100.6,182.8-14.36,2.73-39.55,1.06-53.56-1.73,7.27-2.22,9.09-3.23,13.63-4.79,14.56-5,28.6-10.97,41.22-19.94.41-.29.92-.42,1.39-.63h0c.22-.66.44-1.31.67-1.97,63.43-13.58,90.87-54.86,76.32-121.73-1.18-5.41-2.09-10.32,2.31-14.64,2.11-2.64,4.22-5.27,6.34-7.91Z"/>
      <path class="cls-17" d="m39.66,161.29c-.08-3.35.84-6.45,2.2-9.46,5.38-13.76,36.39-30.63,52.27-33.27,3.56-.59,7.19-.88,10.8-1.03,1.5-.07,4.05-1.3,4.09,1.81.04,3-2.58,2.01-4.07,2.09-13.59.68-26.14,4.5-37.81,11.56-11.68,7.06-20.9,16.37-27.49,28.31Z"/>
      <path class="cls-18" d="m33.5,87.59c-.02.9-1.52,1.24-2.5,1.92-9.96,6.92-18.65,15.11-25.4,25.25-.86,1.29-1.67,2.62-2.36,4-.57,1.15-1.29,1.55-2.45.96-1.13-.58-.82-1.46-.4-2.31,6.82-13.74,15.48-25.95,28.62-34.42,1.73-1.12,4.45,1.28,4.49,4.6Z"/>
      <path class="cls-1" d="m158.08,177.97c-.86-.14-1.23-.74-.87-1.36.36-.63,1.03-1.15,1.66-1.54,8.76-5.43,15.22-13.11,20.91-21.5,1.42-2.1,2.7-3.07,4.92-1.38,2.21,1.68.31,3.03-.57,4.2-6.74,8.92-15.76,15.17-25.06,21.07-.32.2-.67.35-.99.52Z"/>
      <path class="cls-10" d="m96.65,207.32c-2.81-.22-4.29-1.69-4.25-4.51.04-2.66,1.51-4.12,4.1-4.19,2.95-.09,4.28,1.87,4.27,4.46,0,2.46-1.48,4.06-4.12,4.24Z"/>
      <path class="cls-15" d="m195.3,138.82c-.19,2.55-1.48,3.96-4.19,3.95-2.67,0-4.27-1.33-4.23-3.95.04-2.53,1.62-4.03,4.23-4.08,2.66-.05,4.04,1.36,4.19,4.08Z"/>
      <path class="cls-13" d="m126.07,120.11c-.21,2.22-1.27,3.89-3.78,3.9-2.57,0-4.1-1.42-4.13-4.07-.03-2.47,1.28-3.91,3.75-3.99,2.66-.09,4,1.4,4.17,4.15Z"/>
      <path class="cls-11" d="m61.78,145.89c2.5.22,4.01,1.66,4.16,4.19.13,2.3-1.52,3.28-3.5,3.27-2.42-.01-3.78-1.63-4-3.94-.2-2.2,1.14-3.3,3.34-3.52Z"/>
      <path class="cls-8" d="m79.54,136.44c-3.75,2.26-7.21,4.78-10.37,7.7-1.14,1.05-1.8.12-2.51-.64-.78-.83-.76-1.55.21-2.2,3.81-2.57,7.81-4.64,12.67-4.85Z"/>
      <path class="cls-5" d="m209.03,46.69c0,9.91-8.03,17.94-17.94,17.94-9.91,0-17.94-8.03-17.94-17.94s8.03-17.94,17.94-17.94c9.91,0,17.94,8.03,17.94,17.94Z"/>
      <path class="cls-16" d="m151.77,107.91c-.54-2.8-3.09-2.19-4.69-2.28-42.8-2.37-63.92,6.42-83.27,18.47,13.06-10.61,35.75-18.13,50.79-19.54,7.57-.87,15.13-1.89,22.72-1.34,5.24.38,10.56.19,15.73,1.41-.13,1.21-.36,2.38-1.29,3.28Z"/>
      <path class="cls-14" d="m102.91,26.28c.03-.24-13.42-2.55-29.81,8.03-16.39,10.59-36.41-.92-36.41-.92l.38-1.04,13.78-7.88,15.33-4.11,16.17-.21,12.39,2.07,11.41,4.36-3.24-.3Z"/>
      <path class="cls-6" d="m119.04,32.46c-2.42-1.8-9.2-4.41-12.02-5.46-7.92-2.95-19.07-6.07-31.14-6.21-12.02-.14-27.97,4.02-39.55,12.88l.74-1.32.93-1.55c11.98-9.17,25.49-12.13,37.89-11.99,12.35.15,23.09,3.99,31.17,7,7.03,2.89,11.96,6.64,11.98,6.64Z"/>
      <path class="cls-9" d="m223.79,61.81c1.23,4.2.84.77,1.36-1.6h0c.01.17,7.05,60.36-28.24,108.01-6.54,7.05-3.69,3.09-.99-1.24,34.61-46.73,27.89-105,27.87-105.17Z"/>
      <path class="cls-15" d="m195.3,138.82c-.19,2.55-1.48,3.96-4.19,3.95-2.67,0-4.27-1.33-4.23-3.95.04-2.53,1.62-4.03,4.23-4.08,2.66-.05,4.04,1.36,4.19,4.08Z"/>
      <path class="cls-4" d="m224.73,59.33s5.85,61.78-29.54,108.82c0,0,19.47-26.64,8.21-77.33,0,0-1.27-5.52-1.32-7.27-.05-1.75-.27-5.46,2.74-8.79,3.01-3.33,6.65-8.19,6.65-8.19l7.13-10.72,2.88-4.34s1.43-1.51,2.73,5.37l.53,2.45Z"/>
    </g>
  </g>
</svg>