<?xml version="1.0" encoding="UTF-8"?>
<svg id="Layer_2" data-name="Layer 2" xmlns="http://www.w3.org/2000/svg" xmlns:xlink="http://www.w3.org/1999/xlink" viewBox="0 0 696.18 241.13">
  <defs>
    <style>
      .cls-1 {
        fill: #e09858;
      }

      .cls-1, .cls-2, .cls-3, .cls-4, .cls-5, .cls-6, .cls-7, .cls-8, .cls-9, .cls-10, .cls-11, .cls-12, .cls-13, .cls-14, .cls-15, .cls-16, .cls-17, .cls-18, .cls-19, .cls-20, .cls-21 {
        fill-rule: evenodd;
      }

      .cls-2 {
        fill: url(#GradientFill_1);
      }

      .cls-3 {
        fill: url(#GradientFill_2);
      }

      .cls-4 {
        fill: url(#GradientFill_5);
      }

      .cls-5 {
        fill: #55c2b8;
      }

      .cls-6 {
        fill: #68c8c4;
      }

      .cls-7 {
        fill: #da7441;
      }

      .cls-8 {
        fill: #3b9199;
      }

      .cls-9 {
        fill: #f1b35b;
      }

      .cls-10 {
        fill: #ec8a46;
      }

      .cls-11 {
        fill: #479eaf;
      }

      .cls-12 {
        fill: url(#GradientFill_4);
      }

      .cls-22 {
        letter-spacing: .23em;
      }

      .cls-13 {
        fill: #37a1a9;
      }

      .cls-14 {
        fill: #0c7676;
      }

      .cls-15 {
        fill: #e28852;
      }

      .cls-16 {
        fill: #57b9c3;
      }

      .cls-17 {
        fill: #318394;
      }

      .cls-23 {
        fill: #52c4cd;
        font-family: CopperplateGothic-Bold, 'Copperplate Gothic Bold';
        font-size: 30px;
        font-weight: 700;
      }

      .cls-18 {
        fill: #3db4b8;
      }

      .cls-24 {
        letter-spacing: .23em;
      }

      .cls-19 {
        fill: #f89a3a;
      }

      .cls-20 {
        fill: #30909d;
      }

      .cls-21 {
        fill: #14747f;
      }
    </style>
    <linearGradient id="GradientFill_1" data-name="GradientFill 1" x1="92.88" y1="32.44" x2="92.88" y2="90.77" gradientUnits="userSpaceOnUse">
      <stop offset="0" stop-color="#30bebc"/>
      <stop offset="1" stop-color="#178d9b"/>
    </linearGradient>
    <linearGradient id="GradientFill_2" data-name="GradientFill 2" x1="86.28" y1="81.12" x2="86.28" y2="240.01" gradientUnits="userSpaceOnUse">
      <stop offset="0" stop-color="#24a7b1"/>
      <stop offset="1" stop-color="#24a7b1"/>
    </linearGradient>
    <linearGradient id="GradientFill_4" data-name="GradientFill 4" x1="152.35" y1="-431.82" x2="152.35" y2="612.12" gradientUnits="userSpaceOnUse">
      <stop offset="0" stop-color="#ea9123"/>
      <stop offset=".56" stop-color="#ef9a29"/>
      <stop offset=".81" stop-color="#ec5c30"/>
      <stop offset="1" stop-color="#d64234"/>
    </linearGradient>
    <linearGradient id="GradientFill_5" data-name="GradientFill 5" x1="210.14" y1="9.44" x2="210.14" y2="201.29" gradientUnits="userSpaceOnUse">
      <stop offset="0" stop-color="#ea9123"/>
      <stop offset="1" stop-color="#dd6826"/>
    </linearGradient>
  </defs>
  <g id="Layer_1-2" data-name="Layer 1">
    <path class="cls-19" d="m285.58,158.42c1.55,0,2.82-.22,3.82-.65.99-.44,1.74-1.09,2.23-1.95.5-.87.84-1.97,1.03-3.31.19-1.33.28-2.9.28-4.7v-57.82c0-1.37-.06-2.59-.19-3.68-.12-1.09-.4-2.02-.84-2.79-.43-.78-1.06-1.38-1.86-1.82-.81-.44-1.89-.65-3.26-.65v-.93h61.92v.28l3.17,17.13-.74.28c-2.3-3.17-4.53-5.82-6.7-7.96-2.17-2.14-4.55-3.86-7.12-5.17-2.58-1.3-5.49-2.22-8.75-2.75-3.26-.53-7.06-.79-11.41-.79h-12.29s0,32.68,0,32.68h3.82c4.22,0,7.73-.22,10.52-.65,2.79-.44,5.1-1.13,6.94-2.09,1.83-.96,3.27-2.27,4.33-3.91,1.05-1.65,1.95-3.68,2.7-6.1h.56s0,26.44,0,26.44h-.56c-1.12-2.29-2.24-4.25-3.35-5.86-1.12-1.61-2.53-2.93-4.24-3.96-1.71-1.03-3.9-1.77-6.57-2.23-2.67-.47-6.11-.7-10.33-.7h-3.82s0,43.57,0,43.57h10.06c4.22,0,8.05-.26,11.5-.79,3.45-.53,6.61-1.46,9.5-2.79,2.89-1.34,5.57-3.15,8.05-5.45,2.48-2.3,4.9-5.18,7.26-8.66l.65.18-3.17,18.53h-63.13v-.93Z"/>
    <path class="cls-19" d="m360.06,144.08h.74c.37,1.8.9,3.63,1.58,5.49.68,1.86,1.55,3.55,2.61,5.07,1.06,1.52,2.3,2.76,3.72,3.72,1.43.96,3.07,1.44,4.94,1.44,2.73,0,4.89-.6,6.47-1.81,1.58-1.21,2.78-2.82,3.58-4.84.81-2.02,1.32-4.34,1.54-6.98.22-2.64.36-5.41.42-8.33v-47.86c0-1.37-.06-2.59-.18-3.68-.13-1.09-.4-2.02-.84-2.79-.43-.78-1.06-1.38-1.86-1.82-.81-.44-1.89-.65-3.26-.65v-.93c2.73.13,4.99.2,6.8.24,1.8.03,3.47.05,5.03.05,1.8,0,3.6-.01,5.4-.05,1.8-.03,4.13-.11,6.98-.23v.93c-1.37,0-2.45.2-3.26.61-.81.4-1.43.98-1.86,1.72-.43.74-.71,1.66-.84,2.75-.12,1.09-.19,2.28-.19,3.58v39.38c-.12,10.55-2.45,18.52-6.98,23.88-4.53,5.37-11.24,8.05-20.11,8.05-4.28,0-9.06-.65-14.34-1.96l3.91-14.99Z"/>
    <path class="cls-19" d="m417.51,86.95c-.19-1.33-.53-2.43-1.02-3.3-.5-.87-1.24-1.52-2.24-1.96-.99-.44-2.27-.65-3.82-.65v-.93c3.04.13,5.56.24,7.54.33,1.99.09,3.88.14,5.68.14s3.72-.05,5.77-.14c2.05-.09,4.62-.2,7.73-.33v.93c-1.55,0-2.81.2-3.77.61-.96.4-1.71.99-2.23,1.77-.53.78-.9,1.77-1.12,2.98-.22,1.21-.33,2.65-.33,4.33v67.6h12.29c4.34,0,8.15-.26,11.41-.79,3.26-.53,6.18-1.44,8.75-2.75,2.57-1.3,4.95-3.03,7.12-5.17,2.17-2.14,4.41-4.8,6.7-7.96.06,0,.15.03.28.09.12.06.2.11.23.14.03.03.11.08.23.14l-3.16,17.04v.28h-61.92v-.93c1.37,0,2.45-.22,3.26-.65.81-.44,1.43-1.04,1.86-1.82.43-.78.71-1.71.84-2.79.12-1.09.19-2.31.19-3.68v-57.82c0-1.8-.09-3.37-.28-4.7Z"/>
    <path class="cls-19" d="m508.38,96.22c-.5,1.18-1.18,2.9-2.05,5.17-.87,2.27-1.88,4.84-3.03,7.73-1.15,2.89-2.37,5.94-3.68,9.17-1.3,3.23-2.58,6.42-3.82,9.59,2.36-.06,4.53.5,6.52,1.68,2.05,1.36,3.74,3.24,5.07,5.63,1.33,2.39,2.59,4.89,3.77,7.5.81,1.8,1.66,3.63,2.56,5.49.9,1.86,1.97,3.54,3.21,5.03,1.24,1.49,2.7,2.72,4.38,3.68,1.68.96,3.63,1.44,5.87,1.44,1.3,0,2.31-.31,3.03-.93.71-.62,1.19-1.41,1.44-2.37.25-.96.26-2.05.05-3.26-.22-1.21-.57-2.47-1.07-3.77-.06-.12-.09-.22-.09-.28,0-.06-.03-.12-.09-.19-.06-.06-.09-.12-.09-.19-2.86-6.64-5.28-12.29-7.26-16.95-1.99-4.66-3.68-8.58-5.08-11.78-1.4-3.2-2.53-5.83-3.4-7.91-.87-2.08-1.65-3.91-2.33-5.49-.68-1.58-1.32-3.04-1.91-4.38-.59-1.34-1.26-2.87-2-4.61h0Zm-29.79,62.38c1.8-.99,3.31-2.28,4.52-3.86,1.21-1.59,2.31-3.49,3.3-5.73,4.84-12.04,9.19-22.97,13.04-32.77,1.68-4.16,3.31-8.27,4.89-12.34,1.58-4.07,3.03-7.76,4.33-11.08,1.3-3.32,2.4-6.1,3.31-8.33.9-2.24,1.44-3.63,1.63-4.19.06-.06.09-.12.09-.19h.75s29.7,68.99,29.7,68.99c1.43,3.29,2.75,5.59,3.96,6.89,1.21,1.3,2.43,2.17,3.68,2.61v.74c-2.42-.18-4.58-.31-6.47-.37-1.89-.06-3.74-.09-5.54-.09-1.8,0-3.69.03-5.68.09-1.99.06-4.28.19-6.89.37-3.1,0-5.66-.79-7.68-2.37-2.02-1.59-3.76-3.54-5.21-5.87-1.46-2.33-2.75-4.84-3.86-7.54-1.12-2.7-2.33-5.17-3.63-7.4-1.3-2.24-2.86-4.05-4.66-5.45-1.8-1.4-4.07-2-6.8-1.82-.81,2.11-1.6,4.14-2.37,6.1-.78,1.95-1.49,3.77-2.14,5.45-.65,1.68-1.24,3.16-1.77,4.47-.53,1.3-.95,2.36-1.26,3.17-.87,2.3-1.01,4.42-.42,6.38.59,1.96,2.22,3.34,4.89,4.14v.74c-1.37-.12-2.55-.21-3.54-.28-.99-.06-1.93-.09-2.79-.09-1.18,0-2.33.03-3.44.09-1.12.06-2.42.16-3.91.28v-.75Z"/>
    <path class="cls-19" d="m563.14,86.95c-.19-1.33-.53-2.43-1.03-3.3-.5-.87-1.24-1.52-2.23-1.96-1-.44-2.27-.65-3.82-.65v-.93c3.04.13,5.55.24,7.54.33,1.99.09,3.88.14,5.68.14s3.72-.05,5.77-.14c2.05-.09,4.63-.2,7.73-.33v.93c-1.55,0-2.81.2-3.77.61-.96.4-1.71.99-2.23,1.77-.53.78-.9,1.77-1.12,2.98-.22,1.21-.33,2.65-.33,4.33v67.6h12.29c4.35,0,8.15-.26,11.41-.79,3.26-.53,6.17-1.44,8.75-2.75,2.58-1.3,4.95-3.03,7.12-5.17,2.18-2.14,4.41-4.8,6.71-7.96.06,0,.15.03.28.09.12.06.2.11.23.14.03.03.11.08.23.14l-3.16,17.04v.28h-61.92v-.93c1.36,0,2.45-.22,3.26-.65.8-.44,1.43-1.04,1.86-1.82.43-.78.71-1.71.84-2.79.12-1.09.18-2.31.18-3.68v-57.82c0-1.8-.09-3.37-.27-4.7Z"/>
    <path class="cls-19" d="m630.82,135.23l.75.09c.5,3.35,1.4,6.44,2.7,9.26,1.3,2.82,2.98,5.26,5.03,7.31,2.05,2.05,4.45,3.65,7.21,4.8,2.76,1.15,5.85,1.72,9.27,1.72,3.04,0,5.91-.33,8.61-.98,2.7-.65,5.06-1.66,7.08-3.03,2.01-1.37,3.61-3.09,4.79-5.17,1.18-2.08,1.77-4.58,1.77-7.5,0-2.73-.73-5.01-2.19-6.84-1.46-1.83-3.37-3.4-5.72-4.7-2.36-1.31-5.06-2.44-8.1-3.4-3.05-.96-6.16-1.92-9.36-2.89-3.2-.96-6.32-2.03-9.36-3.21-3.04-1.18-5.74-2.64-8.1-4.38-2.36-1.74-4.27-3.83-5.73-6.29-1.45-2.45-2.18-5.48-2.18-9.08,0-3.85.91-7.09,2.74-9.73,1.83-2.64,4.22-4.78,7.17-6.42,2.95-1.64,6.29-2.84,10.01-3.58,3.73-.75,7.51-1.12,11.36-1.12,5.09,0,9.78.53,14.06,1.58,4.28,1.06,8.63,2.67,13.04,4.84l-4.66,16.11-.93-.09c-.13-3.04-.76-5.88-1.91-8.52-1.15-2.64-2.68-4.9-4.61-6.8-1.92-1.89-4.17-3.38-6.75-4.47-2.57-1.09-5.35-1.63-8.33-1.63-2.73,0-5.34.36-7.82,1.07-2.49.71-4.69,1.75-6.61,3.12-1.93,1.36-3.45,3.07-4.57,5.12-1.11,2.05-1.67,4.38-1.67,6.98s.73,4.67,2.19,6.38c1.45,1.71,3.38,3.14,5.77,4.28,2.39,1.15,5.12,2.16,8.19,3.03,3.07.87,6.21,1.75,9.41,2.65,3.19.9,6.33,1.91,9.4,3.03,3.07,1.12,5.8,2.53,8.19,4.24,2.39,1.71,4.32,3.82,5.78,6.33,1.45,2.51,2.18,5.6,2.18,9.26,0,4.28-.9,7.88-2.7,10.8-1.8,2.92-4.22,5.26-7.26,7.03-3.04,1.77-6.56,3.03-10.57,3.77-4,.74-8.17,1.12-12.52,1.12-5.34,0-10.41-.62-15.22-1.86-4.81-1.24-9.48-3.26-14.01-6.05l4.18-16.2Z"/>
    <g>
      <path class="cls-2" d="m154.5,24.59c2.05,1.75,1.54,3.12-1.24,4.52,0,0,0,0,0,0-4.41,2.35-8.81,4.7-13.22,7.06,0,0,0,0,0,0-.31.22-.64.43-.94.66-5.39,4.15-10.41,4.97-15.72-.54C89.39,1.03,19.19,64.81,85.66,85.71c-1.86,1.51-4.89,1.1-6.99,1.64-8.84,2.24-17.06,5.38-25.21,9.24-1.26.6-1.65,2-2.95,2.4C-11.48,43.52,79.93-42.69,154.5,24.59Z"/>
      <path class="cls-3" d="m22.63,127.83c30.85-54.68,87.46-45.06,134.24-42.3,4.3.04,4.32.03,2.66,3.94-2.12,4.99-4.29,9.96-6.43,14.95-.58,1.48-.88,1.84-1.29,3.28-.54-2.8-3.09-2.19-4.69-2.28-23.09-1.28-45.62,1.39-67.27,9.94-.47.19-1.11.31-1.33.68-.45.73.42.65.76.88-29.44,9.04-48.28,37.9-35.8,68.67,13.5,22.76,35,28.55,59.46,28.01,8.04-.18,15.97-1.36,23.85-2.93.52.84.18,1.57-.26,2.3-6.63,5.98-14.68,9.62-22.61,13.36-10.89,5.14-22.19,9.24-34.03,11.67-14.7-4.54-27.83-11.7-38.49-22.99-.7-.74-1.29-1.59-1.93-2.38-2.89-2.7-5.22-5.8-6.98-9.34-6.95-9.69-9.79-20.77-10.37-32.43-.77-15.33,2.12-29.88,10.51-43.03Z"/>
      <path class="cls-7" d="m201.57,140.67c-.11,5.86-1.7,11.24-4.3,16.29-6.5,12.58-16.7,21.74-28.26,29.35-15.18,9.99-32.04,15.7-50.12,17.54-1.83.18-5.33,2.07-5.56-1.78-.2-3.32,3.1-1.75,4.78-1.99,34.02-4.87,60.83-20.94,79.04-50.51.88-1.43,1.54-2.99,2.29-4.5.72-1.46,1.43-2.93,2.14-4.4Z"/>
      <path class="cls-21" d="m151.82,107.7q-2.42,6.05-8.79,6.01c-19.59-.1-44.62-2.58-63.14,2.96-1.15.05-11.71,5.05-12.33,5.2.41-1.02,12.06-7.11,13-7.5,12.97-5.35,26.45-8.36,40.44-9.67,8.68-.81,17.29-.5,25.92-.16,1.96.08,5.08-.67,4.9,3.15Z"/>
      <path class="cls-20" d="m1.46,162.99c.64-27.42,10.71-50.29,32.72-67.33,1.14-.88,2.28-2.98,4.19-1.43,1.93,1.57,2.52,2.91-.14,4.99-20.03,15.73-31.63,36.19-34,61.72-.4,4.28-.28,8.53.22,12.78.12,1.03.38,2.46-.94,2.55-1.34.09-1.12-1.44-1.27-2.41-.53-3.59-.82-7.2-.78-10.87Z"/>
      <path class="cls-12" d="m211.77,66.41s0,0,0,0c3.25-4.9,6.5-9.8,9.84-14.84,1.78,1.83,2.16,3.59,2.44,5.38,29.11,85.19.24,165.94-100.6,182.8-14.36,2.73-39.55,1.06-53.56-1.73,7.27-2.22,9.09-3.23,13.63-4.79,14.56-5,28.6-10.97,41.22-19.94.41-.29.92-.42,1.39-.63h0c.22-.66.44-1.31.67-1.97,63.43-13.58,90.87-54.86,76.32-121.73-1.18-5.41-2.09-10.32,2.31-14.64,2.11-2.64,4.22-5.27,6.34-7.91Z"/>
      <path class="cls-17" d="m39.66,161.29c-.08-3.35.84-6.45,2.2-9.46,5.38-13.76,36.39-30.63,52.27-33.27,3.56-.59,7.19-.88,10.8-1.03,1.5-.07,4.05-1.3,4.09,1.81.04,3-2.58,2.01-4.07,2.09-13.59.68-26.14,4.5-37.81,11.56-11.68,7.06-20.9,16.37-27.49,28.31Z"/>
      <path class="cls-18" d="m33.5,87.59c-.02.9-1.52,1.24-2.5,1.92-9.96,6.92-18.65,15.11-25.4,25.25-.86,1.29-1.67,2.62-2.36,4-.57,1.15-1.29,1.55-2.45.96-1.13-.58-.82-1.46-.4-2.31,6.82-13.74,15.48-25.95,28.62-34.42,1.73-1.12,4.45,1.28,4.49,4.6Z"/>
      <path class="cls-1" d="m158.08,177.97c-.86-.14-1.23-.74-.87-1.36.36-.63,1.03-1.15,1.66-1.54,8.76-5.43,15.22-13.11,20.91-21.5,1.42-2.1,2.7-3.07,4.92-1.38,2.21,1.68.31,3.03-.57,4.2-6.74,8.92-15.76,15.17-25.06,21.07-.32.2-.67.35-.99.52Z"/>
      <path class="cls-10" d="m96.65,207.32c-2.81-.22-4.29-1.69-4.25-4.51.04-2.66,1.51-4.12,4.1-4.19,2.95-.09,4.28,1.87,4.27,4.46,0,2.46-1.48,4.06-4.12,4.24Z"/>
      <path class="cls-15" d="m195.3,138.82c-.19,2.55-1.48,3.96-4.19,3.95-2.67,0-4.27-1.33-4.23-3.95.04-2.53,1.62-4.03,4.23-4.08,2.66-.05,4.04,1.36,4.19,4.08Z"/>
      <path class="cls-13" d="m126.07,120.11c-.21,2.22-1.27,3.89-3.78,3.9-2.57,0-4.1-1.42-4.13-4.07-.03-2.47,1.28-3.91,3.75-3.99,2.66-.09,4,1.4,4.17,4.15Z"/>
      <path class="cls-11" d="m61.78,145.89c2.5.22,4.01,1.66,4.16,4.19.13,2.3-1.52,3.28-3.5,3.27-2.42-.01-3.78-1.63-4-3.94-.2-2.2,1.14-3.3,3.34-3.52Z"/>
      <path class="cls-8" d="m79.54,136.44c-3.75,2.26-7.21,4.78-10.37,7.7-1.14,1.05-1.8.12-2.51-.64-.78-.83-.76-1.55.21-2.2,3.81-2.57,7.81-4.64,12.67-4.85Z"/>
      <path class="cls-5" d="m209.03,46.69c0,9.91-8.03,17.94-17.94,17.94-9.91,0-17.94-8.03-17.94-17.94s8.03-17.94,17.94-17.94c9.91,0,17.94,8.03,17.94,17.94Z"/>
      <path class="cls-16" d="m151.77,107.91c-.54-2.8-3.09-2.19-4.69-2.28-42.8-2.37-63.92,6.42-83.27,18.47,13.06-10.61,35.75-18.13,50.79-19.54,7.57-.87,15.13-1.89,22.72-1.34,5.24.38,10.56.19,15.73,1.41-.13,1.21-.36,2.38-1.29,3.28Z"/>
      <path class="cls-14" d="m102.91,26.28c.03-.24-13.42-2.55-29.81,8.03-16.39,10.59-36.41-.92-36.41-.92l.38-1.04,13.78-7.88,15.33-4.11,16.17-.21,12.39,2.07,11.41,4.36-3.24-.3Z"/>
      <path class="cls-6" d="m119.04,32.46c-2.42-1.8-9.2-4.41-12.02-5.46-7.92-2.95-19.07-6.07-31.14-6.21-12.02-.14-27.97,4.02-39.55,12.88l.74-1.32.93-1.55c11.98-9.17,25.49-12.13,37.89-11.99,12.35.15,23.09,3.99,31.17,7,7.03,2.89,11.96,6.64,11.98,6.64Z"/>
      <path class="cls-9" d="m223.79,61.81c1.23,4.2.84.77,1.36-1.6h0c.01.17,7.05,60.36-28.24,108.01-6.54,7.05-3.69,3.09-.99-1.24,34.61-46.73,27.89-105,27.87-105.17Z"/>
      <path class="cls-15" d="m195.3,138.82c-.19,2.55-1.48,3.96-4.19,3.95-2.67,0-4.27-1.33-4.23-3.95.04-2.53,1.62-4.03,4.23-4.08,2.66-.05,4.04,1.36,4.19,4.08Z"/>
      <path class="cls-4" d="m224.73,59.33s5.85,61.78-29.54,108.82c0,0,19.47-26.64,8.21-77.33,0,0-1.27-5.52-1.32-7.27-.05-1.75-.27-5.46,2.74-8.79,3.01-3.33,6.65-8.19,6.65-8.19l7.13-10.72,2.88-4.34s1.43-1.51,2.73,5.37l.53,2.45Z"/>
    </g>
    <text/>
    <text class="cls-23" transform="translate(283.5 202.83)" textLength="395" lengthAdjust="spacing">Learning Horizon</text>
  </g>
</svg>