<?xml version="1.0" encoding="utf-8"?>
<!-- Generator: Adobe Illustrator 26.0.0, SVG Export Plug-In . SVG Version: 6.00 Build 0)  -->
<svg version="1.1" id="Layer_1" xmlns="http://www.w3.org/2000/svg" xmlns:xlink="http://www.w3.org/1999/xlink" x="0px" y="0px"
	 viewBox="262 318 680 272" style="enable-background:new 262 318 680 272;" xml:space="preserve">
<style type="text/css">
	.st0{fill:#2CA7B1;}
	.st1{fill:#31BEBC;}
	.st2{fill:#D64135;}
	.st3{fill:#1F8D9A;}
	.st4{fill:#0F7676;}
	.st5{fill:#EC8027;}
	.st6{fill:#DF552E;}
	.st7{fill:#E76B2A;}
	.st8{fill:#F09B28;}
	.st9{fill:#DA7341;}
	.st10{fill:#14737F;}
	.st11{fill:#30919E;}
	.st12{fill:#51C4B9;}
	.st13{fill:#F3B45A;}
	.st14{fill:#C53820;}
	.st15{fill:#338596;}
	.st16{fill:#3EB5B9;}
	.st17{fill:#D37326;}
	.st18{fill:#57B9C3;}
	.st19{fill:#E09858;}
	.st20{fill:#4D92B1;}
	.st21{fill:#7DD5C3;}
	.st22{fill:#ED8A48;}
	.st23{fill:#E28853;}
	.st24{fill:#38A0A8;}
	.st25{fill:#459EAF;}
	.st26{fill:#3D9199;}
	.st27{fill:#62BBB9;}
	.st28{fill:#EA9117;}
	.st29{fill:#60CEC9;}
	.st30{fill:#DD6716;}
	.st31{fill:#0099CC;}
	.st32{fill:#FF9933;}
</style>
<g>
	<g>
		<path class="st0" d="M346.16,413.99c24.25,1.26,48.53,0.28,72.79,0.5c4.34,0.04,4.37,0.03,2.68,3.98
			c-2.14,5.04-4.33,10.06-6.49,15.09c-3.31,1-6.75,0.62-10.01,0.21c-12.45-1.56-24.63,0.27-36.87,2.09
			c-11.21,1.67-21.53,5.84-31.66,10.62c-3.17,1.49-6.15,3.38-9.33,4.86c-1.95,0.65-3.03-0.55-3.69-2.03
			c-1.82-4.12-5.17-6.39-9.12-8.09c-2.54-1.09-4.66-2.87-6.81-4.56c-1.31-1.03-2.15-2.27-1.82-4.04c1.92-1.52,3.83-3.03,5.75-4.55
			c0.39-1.61,1.28-2.75,2.79-3.53c8.11-4.16,16.31-8.07,25.23-10.31C341.82,413.67,343.98,414.3,346.16,413.99z"/>
		<path class="st0" d="M304.49,515.5c13.62,22.98,35.33,28.82,60.02,28.27c8.12-0.18,16.12-1.37,24.07-2.95
			c0.52,0.84,0.18,1.59-0.26,2.32c-6.69,6.04-14.82,9.71-22.83,13.49c-11,5.19-22.4,9.32-34.36,11.78
			c-14.84-4.58-28.09-11.81-38.85-23.21c-0.71-0.75-1.3-1.6-1.95-2.41c-0.15-9.3,0.8-18.49,2.91-27.56c0.57-2.45,2.14-4.46,2.99-6.8
			c0.4-1.1,0.91-2.32,2.41-2.14c1.26,0.15,2.13,1.02,2.53,2.19c0.5,1.48,1.1,2.92,1.41,4.47
			C302.8,514.05,302.89,515.38,304.49,515.5z"/>
		<path class="st1" d="M298.16,361.16c3.7-8.65,9.91-15.26,17.19-20.94c14.27-11.14,30.87-13.51,48.25-12.17
			c9.51,0.73,18.84,2.65,27.31,7.46c4.68,4.25,3.98,7.81-1.79,10.12c-3.67,1.47-7.44,2.33-11.91,2.94
			c5.4,1.94,10.62,1.19,15.53,2.51c4.48,1.21,7.71,3.71,9.98,7.61c1.25,2.14,1.34,4.21-0.76,5.97c-0.32,0.22-0.65,0.43-0.95,0.67
			c-5.44,4.19-10.51,5.02-15.87-0.54c-2.15-2.23-5.55-3.25-8.39-4.82c-0.02-0.54-0.23-1-0.57-1.41c-9.56-6.27-19.95-10-31.45-10.21
			c-7.15-0.13-14.32-0.34-21.35,1.47c-1.4,0.36-2.85,0.44-3.64,1.9c-1.18,1.56-3.04,1.87-4.69,2.54c-4.43,1.79-8.8,3.66-12.77,6.39
			C301.06,361.47,299.73,362.6,298.16,361.16z"/>
		<path class="st2" d="M331.14,568.4c4.02-3.2,9.17-3.26,13.76-4.83c14.7-5.05,28.87-11.07,41.61-20.13
			c0.41-0.29,0.93-0.43,1.4-0.64c0.93-0.79,2-1.16,3.22-1.25c6.36-0.5,12.55-2.42,18.97-2.45c2,3.04,4.76,4.93,8.35,5.67
			c1,0.21,1.97,0.77,2.72,1.48c3.45,3.29,7.06,6.14,12.23,5.88c0.71-0.04,1.51,0.45,1.45,1.48c-7.72,4.48-16.1,7.52-24.43,10.56
			c-5.53,2.02-11.42,3.04-17.15,4.51c-2.58,1.07-5.36,1.03-8.06,1.48c-4.83,1.17-9.74,1.67-14.71,1.59
			c-6.29,0.7-12.59,0.73-18.88-0.02C344.62,571.67,337.81,570.45,331.14,568.4z"/>
		<path class="st3" d="M346.16,413.99c-1.88,1.52-4.25,0.8-6.37,1.33c-8.92,2.26-17.01,6.43-25.23,10.33
			c-1.27,0.6-1.67,2.02-2.97,2.43c-9.27-8.3-16.13-18.08-18.58-30.53c-0.2-1.02-0.32-2.06-0.47-3.09c0.15-3.72,0.8-7.46-0.47-11.13
			c-0.23-1.92-0.3-3.82,0.59-5.62c0.13,0.52,0.74,0.88,1.13,0.69c1.16-0.58,2.29-0.12,3.43,0.09c5.56,1.01,10.62-1.15,13.05-6.16
			c2.26-4.66,6.09-6.99,10.68-8.42c2.46-0.76,4.96-0.9,6.26,2.12c-4.28,4.94-7.23,10.45-7.68,17.12
			c-0.8,11.92,4.94,20.1,14.72,26.02C337.95,411.43,342.06,412.7,346.16,413.99z"/>
		<path class="st0" d="M283.29,533.36c-7.01-9.78-9.88-20.97-10.47-32.74c-0.78-15.47,2.14-30.16,10.61-43.44
			c4.47,6.01,11.25,9.24,16.78,13.98c1.03,0.88,1.91,1.78,1.76,3.27c-1.26,4.81-5.08,8.13-7.2,12.45
			c-2.99,6.09-5.57,12.33-7.17,18.95c-0.37,1.54-0.23,3.11,0.38,4.61c-0.6,6.66-1.96,13.22-2.69,19.87
			C285.16,531.59,284.74,532.86,283.29,533.36z"/>
		<path class="st0" d="M301.35,474.39c-1.42-3.23-4.54-4.74-7.19-6.48c-2.48-1.63-4.62-3.69-7.18-5.17
			c-2.15-1.24-2.95-3.32-3.55-5.54c5.59-9.9,12.89-18.23,22.4-24.56c1.66,3.61,4.95,5.67,8.22,7.12c5.08,2.27,9.2,5.11,11.22,10.48
			c0.13,0.34,0.87,0.44,1.32,0.65c0.33,1.4-0.88,1.67-1.66,2.26c-5.42,3.09-9.48,7.78-13.98,11.94c-2.71,1.82-4.4,4.58-6.49,6.98
			C303.61,473.04,303.23,474.74,301.35,474.39z"/>
		<path class="st4" d="M327.2,366.03c-4.95-2.73-11.99-0.28-15.07,5.24c-4.34,7.76-7.72,9.5-16.6,7.84
			c-2.74-0.51-1.53,1.7-2.58,2.76c-0.11-1.55-0.21-2.85-0.3-4.15c0.52-5.95,2.17-11.53,5.5-16.55c2.69,0.22,4.05-2.1,6.03-3.21
			c4.89-2.73,10.21-4.44,15.26-6.76c3.63-2.53,7.95-2.12,12.02-2.76c4.92,0,9.83,0,14.74,0c11.39,0.75,21.91,4.04,31.27,10.72
			c-0.25,0.27-0.5,0.54-0.75,0.81c-8.07-2.92-16.35-4.57-24.98-4.09C342.38,356.39,334.3,360.01,327.2,366.03z"/>
		<path class="st5" d="M496.17,470.51c-0.98,14.07-5.83,26.86-12.91,38.91c-0.15,0.25-0.68,0.29-1.03,0.42
			c-4.38,1.54-6.72-1.46-9.18-4.16c-2.37-2.59-3.59-5.33-1.72-8.83c1.04-1.95,2.5-3.67,3.19-5.8c0.36-1.09,1.05-2.39,0.02-3.28
			c-0.92-0.79-1.95,0.17-2.85,0.62c-1.79,0.89-3.56,1.71-5.5,0.4c-0.71-1.01-0.44-2.05,0.15-2.92c5.18-7.69,8.52-16.31,12.57-24.57
			c0.76-1.06,1.64-1.96,2.83-2.59c5.39-2.88,7.4-1.9,8.36,4.17c0.2,1.28,0.23,2.6,0.96,3.73c1.31,2.03,2.74,3.48,4.75,0.61
			C496.86,468.35,496.61,469.42,496.17,470.51z"/>
		<path class="st6" d="M434.84,553.61c-0.97-0.93-2.21-0.76-3.33-0.63c-3.44,0.42-6.05-1.06-8.25-3.43
			c-2.28-2.46-4.92-4.09-8.28-4.7c-2.75-0.5-4.95-1.79-4.43-5.22c0.47-1.65,1.95-2.04,3.29-2.41c10.75-2.93,20.58-7.84,29.98-13.71
			c0.78-0.49,1.62-0.83,2.57-0.71c3.26,4.28,8.66,5.65,12.49,9.17c0.82,0.75,1.82,0.87,2.92,0.44c0.78-0.3,1.82-0.84,2.08,0.69
			C455.28,541.49,445.84,548.65,434.84,553.61z"/>
		<path class="st7" d="M463.88,533.12c-3.98,1.66-6.54-0.65-9.26-3.05c-1.43-1.26-3.38-1.93-5.13-2.8
			c-1.78-0.87-3.01-2.06-2.87-4.21c-0.18-2.46,2.15-2.79,3.41-4.03c5.36-3.94,10.02-8.64,14.48-13.54c0.92-1.01,2.24-2.21,1.51-3.72
			c-0.63-1.3-2.11-0.48-3.21-0.49c-2.03-0.01-3.78-0.74-5.43-1.82c0.86-1.31,1.73-2.63,2.59-3.94c1.41-1.52,2.13-3.48,3.38-5.1
			c0.75-0.98,1.21-2.37,2.9-1.92c2.2,0.39,3.99-0.47,5.83-1.59c1.08-0.66,2.39-2.14,3.79-0.69c1.12,1.16,0.63,2.66,0.18,4.05
			c-0.53,1.61-1.16,3.11-2.2,4.51c-3.82,5.1-1.22,12.34,5.01,14.17c1.12,0.33,2.26,0.58,3.39,0.87c-0.47,3.87-3.2,6.51-5.36,9.38
			C473.05,524.3,469.1,529.32,463.88,533.12z"/>
		<path class="st8" d="M496.17,470.51c-0.06-0.75-0.12-1.51-0.18-2.26c-0.14-0.01-0.28-0.02-0.42-0.03
			c-0.15,1.04-0.29,2.07-0.48,3.45c-3.31-2.36-6.64-4.19-6.17-9.03c0.14-1.45-0.07-4.26-1.65-4.32c-2.84-0.12-5.67,1.06-7.61,3.53
			c-0.95-1.04-0.67-2.13-0.22-3.28c4.64-11.71,6.86-24,8.61-36.39c0.15-1.04,0.42-2.05,0.59-3.08c0.25-1.43,0.4-3.08,2.27-3.16
			c1.92-0.08,2.98,1.14,3.7,2.91c1.21,2.95,1.34,6.12,1.72,9.15c1.56,12.57,1.15,25.22,0.63,37.85
			C496.85,467.42,497.22,469.09,496.17,470.51z"/>
		<path class="st9" d="M464.06,470.14c-0.11,5.92-1.71,11.35-4.34,16.44c-6.56,12.7-16.85,21.95-28.53,29.63
			c-15.33,10.09-32.34,15.85-50.59,17.7c-1.85,0.19-5.38,2.09-5.61-1.79c-0.2-3.35,3.13-1.76,4.83-2
			c34.34-4.92,61.41-21.14,79.78-50.98c0.89-1.44,1.55-3.02,2.31-4.55C462.63,473.11,463.34,471.63,464.06,470.14z"/>
		<path class="st0" d="M283.29,533.36c2.08-6.18,1.21-12.83,3.11-19.05c0.45-1.46,0.54-3.04,0.79-4.56
			c-0.19-6.21,2.8-11.51,5.06-16.98c2.09-5.05,4.65-9.89,7.91-14.32c0.88-1.2,1.65-3.18,3.48-2.29c1.57,0.77,0.49,2.57,0.38,3.93
			c-0.04,0.52-0.16,1.03-0.3,1.53c-0.89,3.16-2.18,6.18-3.11,9.32c-1.24,8.58,0.68,16.66,3.87,24.55c-1.74,0.16-1.75,0.17-2.26-1.29
			c-0.63-1.83-1.2-3.69-1.89-5.49c-0.33-0.85-0.95-1.7-1.94-1.69c-1.07,0.01-0.74,1.15-1.06,1.79c-4.73,9.22-5.62,19.14-5.52,29.28
			c0.01,1.57-0.28,3.36-1.48,4.7C287.43,540.07,285.07,536.93,283.29,533.36z"/>
		<path class="st10" d="M413.84,436.87c-2.45,6.11-2.45,6.1-8.87,6.07c-13.35-0.07-26.7-0.03-40.04-0.23
			c-8.31-0.13-16.37,1.11-24.29,3.47c-1.14,0.51-1.93,0.33-1.36-1.06c0.42-1.03,1.69-1.13,2.64-1.52c13.09-5.4,26.7-8.44,40.83-9.76
			c8.77-0.82,17.45-0.51,26.17-0.16C410.88,433.76,414.02,433.01,413.84,436.87z"/>
		<path class="st11" d="M262.06,492.67c0.65-27.68,10.81-50.76,33.03-67.97c1.15-0.89,2.3-3.01,4.23-1.45
			c1.95,1.59,2.54,2.94-0.14,5.04c-20.22,15.88-31.93,36.54-34.32,62.3c-0.4,4.32-0.28,8.61,0.23,12.9
			c0.12,1.04,0.38,2.48-0.95,2.57c-1.35,0.09-1.13-1.45-1.28-2.43C262.31,500.01,262.02,496.37,262.06,492.67z"/>
		<path class="st12" d="M401.95,364.65c1.41-4.79-2.35-10.26-7.72-11.99c-5.03-1.63-10.3-1.12-15.37-2.26
			c-1.41-0.32-2.79-0.48-3.91-1.77c0.65-1.16,1.75-1.39,2.9-1.4c4.64-0.02,8.72-2.2,13.07-3.36c1.67-0.45,2.34-1.65,1.77-3.66
			c-0.47-1.64-0.99-3.21-1.79-4.71c5.51,1.48,9.77,5.1,14.24,8.35c2,3.07-0.61,3.34-2.42,3.6c-3.21,0.46-6.5,0.09-9.34,0.86
			c4.61,0.58,9.57,0.88,14.57,0.86c2.94-0.01,5.53,1,7.55,3.38c1.56,1.85,1.76,3.39-0.21,4.97
			C410.84,359.9,406.39,362.28,401.95,364.65z"/>
		<path class="st13" d="M496.97,465.84c-0.02-8.74-0.07-17.48-0.06-26.22c0.01-5.75-1.27-11.36-1.81-17.05
			c-0.13-1.38-0.86-2.73-1.44-4.03c-0.52-1.16-1.65-1.94-2.8-1.83c-1.48,0.15-0.85,1.62-0.99,2.56c-2.02,12.82-4.13,25.61-8.49,37.9
			c-0.55,1.56-2.12,2.76-1.71,4.66c-3.81,9.23-8.36,18.08-13.42,26.68c-2.9,1.62-3.22,5.54-6.27,7.02c1.79-3.9,3.59-7.81,5.38-11.71
			c2.22-2.97,3.3-6.53,4.97-9.79c7.78-15.45,12.62-31.78,14.83-48.91c1.39-11.94,1.4-23.9,0.7-35.87c-0.08-1.3-0.24-2.62,0.9-3.63
			c3.26,9.56,5.7,19.34,7.78,29.21c0.82,3.91,1.55,7.84,2.33,11.76c1.2,11.68,1.28,23.39,0.81,35.1
			C497.62,463.1,497.96,464.59,496.97,465.84z"/>
		<path class="st14" d="M450.55,519.95c-1.29,1.07-3.03,1.56-3.93,3.12c-11.11,7.5-23.29,12.69-36.07,16.56
			c-7.48,1.52-14.95,3.12-22.64,3.17c0.22-0.66,0.45-1.32,0.67-1.99c18.92-4.05,36.14-11.87,51.77-23.25
			c2.07,0.89,4.1,0.41,6.23,0.08C448.19,517.41,450.9,516.35,450.55,519.95z"/>
		<path class="st15" d="M300.62,490.96c-0.08-3.38,0.85-6.51,2.23-9.55c0.6-2.12,2.79-3.35,3.15-5.6
			c12.79-15.96,29.7-24.67,49.61-27.99c3.6-0.6,7.26-0.89,10.9-1.04c1.51-0.06,4.09-1.31,4.13,1.83c0.04,3.03-2.6,2.03-4.11,2.11
			c-13.72,0.69-26.38,4.54-38.17,11.67C316.58,469.51,307.27,478.91,300.62,490.96z"/>
		<path class="st6" d="M450.55,519.95c-1.96-3.42-4.48-0.98-6.64-0.44c-2.07,0.52-3.44,0.7-3.57-1.94
			c6.27-5.47,12.09-11.36,17.03-18.09c2.87-0.05,5.58,0.94,8.64,0.47c2.36-0.36,2.12,2.3,0.94,4.02
			c-3.36,4.86-7.86,8.64-12.12,12.64C453.52,517.85,451.99,518.85,450.55,519.95z"/>
		<path class="st16" d="M294.4,416.56c-0.02,0.91-1.53,1.25-2.52,1.94c-10.06,6.99-18.82,15.26-25.64,25.49
			c-0.87,1.3-1.68,2.65-2.38,4.04c-0.58,1.16-1.31,1.57-2.48,0.96c-1.14-0.59-0.83-1.47-0.4-2.33
			c6.88-13.86,15.63-26.19,28.89-34.74C291.61,410.8,294.35,413.21,294.4,416.56z"/>
		<path class="st17" d="M470.89,475.17c-1.78,2.93-2.08,6.8-5.54,8.66c6.14-21.93,5.05-43.94,0.28-65.89
			c-1.19-5.46-2.11-10.42,2.33-14.78c2.13-2.66,4.26-5.32,6.4-7.98c1.6,0.43,0.97,1.62,0.78,2.54c-1.45,7.16-1.98,14.5-3.95,21.53
			c-1.63,5.8-0.64,11.37,0.29,17.02c-0.01,11.85,0.59,23.71-0.98,35.52C470.34,472.96,470.13,474.12,470.89,475.17z"/>
		<path class="st18" d="M413.84,436.87c-0.55-2.83-3.12-2.21-4.73-2.3c-23.3-1.29-46.05,1.4-67.9,10.04
			c-0.47,0.19-1.12,0.32-1.35,0.68c-0.45,0.74,0.42,0.66,0.77,0.89c-5.51,1.69-10.49,4.58-15.7,6.96c0.55-0.75,1.11-1.51,1.66-2.26
			c5.38-1.95,9.73-5.77,14.98-8.04c11.16-4.83,22.67-7.96,34.75-9.35c7.64-0.88,15.27-1.91,22.94-1.35
			c5.29,0.38,10.66,0.19,15.88,1.42C415.01,434.78,414.77,435.96,413.84,436.87z"/>
		<path class="st19" d="M420.16,507.8c-0.87-0.14-1.24-0.75-0.88-1.37c0.37-0.63,1.04-1.16,1.68-1.56
			c8.84-5.48,15.36-13.24,21.11-21.7c1.43-2.11,2.72-3.1,4.97-1.4c2.23,1.7,0.31,3.06-0.58,4.24c-6.8,9.01-15.91,15.32-25.3,21.27
			C420.83,507.48,420.47,507.63,420.16,507.8z"/>
		<path class="st20" d="M306,475.81c0.29,0.8,1.96,1.29,0.53,2.47c-1.24,1.02-2.45,2.09-3.68,3.13c0.23-1.53,0.45-3.06,0.68-4.59
			c-8.2,9.64-12.67,21.09-16.33,32.94c-1.72-0.25-1.08-1.3-0.88-2.34c1.8-9.15,5.08-17.68,10.25-25.47
			c1.65-2.48,3.19-5.04,4.78-7.56c2.19-2.46,3.81-5.4,6.4-7.53c0.97-0.8,1.69-1.97,3.2-1.78c-1.67,2.89-4.36,5.18-5.03,8.65
			C305.78,474.44,305.11,475.15,306,475.81z"/>
		<path class="st21" d="M415.29,357.53c1.23-4.24-0.82-7.21-5.3-7.1c-6.26,0.15-12.45-0.56-18.67-0.89
			c-0.83-0.04-2.15,0.39-2.25-0.85c-0.11-1.41,1.25-1.37,2.27-1.46c3.74-0.35,7.45-1.1,11.24-0.82c1.72,0.13,3.27-0.14,2.57-2.55
			c3.98,2.81,7.78,5.84,11.4,9.1C419.27,355.42,418.5,356.77,415.29,357.53z"/>
		<path class="st22" d="M358.15,537.42c-2.83-0.22-4.33-1.71-4.29-4.56c0.04-2.68,1.52-4.15,4.14-4.23c2.98-0.09,4.32,1.89,4.31,4.5
			C362.31,535.62,360.82,537.23,358.15,537.42z"/>
		<path class="st23" d="M457.73,468.27c-0.19,2.57-1.49,3.99-4.23,3.99c-2.7,0-4.31-1.35-4.27-3.99c0.04-2.56,1.63-4.07,4.27-4.12
			C456.19,464.1,457.58,465.52,457.73,468.27z"/>
		<path class="st24" d="M387.85,449.39c-0.21,2.24-1.28,3.93-3.81,3.94c-2.59,0.01-4.14-1.43-4.17-4.11
			c-0.03-2.49,1.29-3.94,3.78-4.02C386.33,445.12,387.68,446.62,387.85,449.39z"/>
		<path class="st25" d="M322.95,475.42c2.53,0.22,4.05,1.67,4.2,4.23c0.14,2.32-1.54,3.32-3.54,3.31c-2.45-0.01-3.82-1.65-4.04-3.98
			C319.37,476.74,320.73,475.64,322.95,475.42z"/>
		<path class="st26" d="M340.88,465.88c-3.79,2.28-7.27,4.82-10.47,7.77c-1.15,1.06-1.82,0.12-2.54-0.65
			c-0.79-0.84-0.77-1.56,0.21-2.22C331.93,468.18,335.97,466.09,340.88,465.88z"/>
		<path class="st27" d="M288.93,402.91c-0.19,1.83-1.26,2.99-2.99,2.91c-1.87-0.08-3.12-1.47-3.18-3.3
			c-0.05-1.58,1.12-2.59,2.77-2.63C287.53,399.85,288.52,401.08,288.93,402.91z"/>
		<path class="st4" d="M292.06,383.33c2.43,3.61,1.94,7.35,0.47,11.13C291.36,390.79,291.97,387.05,292.06,383.33z"/>
		<path class="st28" d="M470.22,435.96c-2.72-9.38,0.12-18.27,1.97-27.36c0.89-4.39,1.17-8.98,2.17-13.41
			c3.28-4.95,6.56-9.9,9.94-14.98c1.8,1.85,2.18,3.63,2.47,5.43c1.49,9.93,0.74,19.91,0.65,29.88c-0.03,3.45-0.33,6.95-1.42,10.29
			c-2.28,1.07-3.93,2.84-5.57,4.71C477.73,433.57,474.54,435.87,470.22,435.96z"/>
		<path class="st29" d="M331.29,349.39c-4.03,0.05-7.9,1.15-11.83,1.8c-2.26-1.18-0.3-1.42,0.44-1.59
			c3.79-0.85,7.57-2.05,11.41-2.27c11.33-0.66,22.68-0.56,33.4,3.91c4.05,1.69,7.86,3.96,11.75,6.02c0.68,0.36,2.01,0.54,1.03,1.88
			c-8.5-4.28-17.16-8.11-26.75-9.24c-1.29-0.15-2.58-0.32-3.87-0.48C341.67,348.97,336.48,349.05,331.29,349.39z"/>
		<path class="st1" d="M331.29,349.39c5.19-0.96,10.39-1.04,15.58,0.04C341.67,349.42,336.48,349.41,331.29,349.39z"/>
		<path class="st30" d="M470.22,435.96c4.13-2.11,8.47-3.79,11.12-8.13c0.71-1.17,2.23-3.4,4.65-2.03
			c-1.8,17.45-6.89,33.89-15.1,49.37c-1.69,0.11-2.41-0.61-2.09-2.34C471.14,460.62,469.95,448.26,470.22,435.96z"/>
		<circle class="st12" cx="453.48" cy="375.28" r="18.11"/>
	</g>
	<g>
		<g>
			<path class="st31" d="M541.92,498.81h-5.75v-2.73h14.73v2.73h-5.75v14.63h-3.22V498.81z"/>
			<path class="st31" d="M570.63,513.43l-3.55-5.08c-0.15,0.02-0.37,0.02-0.67,0.02h-3.92v5.06h-3.22v-17.35h7.14
				c1.5,0,2.81,0.25,3.93,0.74c1.12,0.5,1.97,1.21,2.57,2.13c0.59,0.93,0.89,2.02,0.89,3.3c0,1.31-0.32,2.43-0.95,3.37
				c-0.64,0.94-1.55,1.65-2.74,2.11l3.99,5.7H570.63z M569.46,499.7c-0.73-0.6-1.79-0.89-3.2-0.89h-3.77v6.92h3.77
				c1.41,0,2.47-0.3,3.2-0.9c0.73-0.6,1.09-1.46,1.09-2.57C570.55,501.15,570.19,500.29,569.46,499.7z"/>
			<path class="st31" d="M596.36,510.73v2.7h-13.02v-17.35h12.67v2.7h-9.45v4.51h8.38v2.65h-8.38v4.78H596.36z"/>
			<path class="st31" d="M621.33,496.08v17.35h-2.65l-9.57-11.75v11.75h-3.2v-17.35h2.65l9.57,11.75v-11.75H621.33z"/>
			<path class="st31" d="M631.94,496.08h7.59c1.85,0,3.5,0.36,4.93,1.08s2.55,1.74,3.35,3.05c0.79,1.31,1.19,2.83,1.19,4.55
				c0,1.72-0.4,3.24-1.19,4.55c-0.79,1.31-1.91,2.33-3.35,3.05c-1.44,0.72-3.08,1.08-4.93,1.08h-7.59V496.08z M639.38,510.71
				c1.27,0,2.39-0.24,3.36-0.73c0.97-0.49,1.71-1.18,2.23-2.08c0.52-0.9,0.78-1.95,0.78-3.14c0-1.19-0.26-2.23-0.78-3.14
				c-0.52-0.9-1.26-1.59-2.23-2.08c-0.97-0.49-2.09-0.73-3.36-0.73h-4.21v11.9H639.38z"/>
			<path class="st31" d="M670.8,513.03c-0.93-0.44-1.7-1.05-2.29-1.85l1.83-2.21c0.96,1.32,2.11,1.98,3.45,1.98
				c1.8,0,2.7-1.07,2.7-3.2v-8.97h-6.17v-2.7h9.4v11.5c0,2.03-0.5,3.56-1.49,4.57c-0.99,1.02-2.45,1.52-4.36,1.52
				C672.76,513.68,671.74,513.46,670.8,513.03z"/>
			<path class="st31" d="M693.5,512.53c-1.42-0.77-2.54-1.83-3.35-3.2c-0.81-1.36-1.21-2.89-1.21-4.57c0-1.69,0.4-3.21,1.21-4.57
				c0.81-1.36,1.93-2.43,3.35-3.2c1.42-0.77,3.02-1.15,4.78-1.15c1.77,0,3.36,0.38,4.78,1.15c1.42,0.77,2.54,1.83,3.35,3.19
				c0.81,1.36,1.21,2.88,1.21,4.59c0,1.7-0.41,3.23-1.21,4.59c-0.81,1.36-1.93,2.42-3.35,3.19c-1.42,0.77-3.02,1.15-4.78,1.15
				C696.52,513.68,694.92,513.3,693.5,512.53z M701.41,510.08c0.93-0.52,1.65-1.25,2.18-2.18c0.53-0.93,0.79-1.98,0.79-3.14
				c0-1.16-0.26-2.2-0.79-3.14c-0.53-0.93-1.26-1.66-2.18-2.18c-0.93-0.52-1.97-0.78-3.12-0.78c-1.16,0-2.2,0.26-3.12,0.78
				c-0.93,0.52-1.65,1.25-2.18,2.18c-0.53,0.93-0.79,1.98-0.79,3.14c0,1.16,0.26,2.2,0.79,3.14c0.53,0.93,1.26,1.66,2.18,2.18
				c0.93,0.52,1.97,0.78,3.12,0.78C699.44,510.86,700.48,510.6,701.41,510.08z"/>
			<path class="st31" d="M741.15,513.43l-3.55-5.08c-0.15,0.02-0.37,0.02-0.67,0.02h-3.92v5.06h-3.22v-17.35h7.14
				c1.5,0,2.81,0.25,3.93,0.74c1.12,0.5,1.97,1.21,2.57,2.13c0.59,0.93,0.89,2.02,0.89,3.3c0,1.31-0.32,2.43-0.95,3.37
				c-0.64,0.94-1.55,1.65-2.74,2.11l3.99,5.7H741.15z M739.98,499.7c-0.73-0.6-1.79-0.89-3.2-0.89h-3.77v6.92h3.77
				c1.41,0,2.47-0.3,3.2-0.9c0.73-0.6,1.09-1.46,1.09-2.57C741.08,501.15,740.71,500.29,739.98,499.7z"/>
			<path class="st31" d="M755.73,511.66c-1.34-1.35-2.01-3.28-2.01-5.79v-9.79h3.22v9.67c0,3.41,1.47,5.11,4.41,5.11
				c2.93,0,4.39-1.7,4.39-5.11v-9.67h3.17v9.79c0,2.51-0.67,4.44-2,5.79c-1.33,1.35-3.19,2.02-5.59,2.02
				C758.93,513.68,757.07,513.01,755.73,511.66z"/>
			<path class="st31" d="M785.35,506.17L782.6,509v4.44h-3.22v-17.35h3.22v8.9l8.58-8.9h3.62l-7.29,7.76l7.74,9.59h-3.77
				L785.35,506.17z"/>
			<path class="st31" d="M805.81,498.81h-5.75v-2.73h14.73v2.73h-5.75v14.63h-3.22V498.81z"/>
			<path class="st31" d="M833.55,509.42h-8.68l-1.71,4.02h-3.32l7.81-17.35h3.17l7.83,17.35h-3.37L833.55,509.42z M832.49,506.89
				l-3.27-7.59l-3.25,7.59H832.49z"/>
			<path class="st31" d="M875.03,496.08v17.35h-2.65l-9.57-11.75v11.75h-3.2v-17.35h2.65l9.57,11.75v-11.75H875.03z"/>
			<path class="st31" d="M896.9,509.42h-8.68l-1.71,4.02h-3.32l7.81-17.35h3.17l7.83,17.35h-3.37L896.9,509.42z M895.83,506.89
				l-3.27-7.59l-3.25,7.59H895.83z"/>
			<path class="st31" d="M925.58,496.08v17.35h-3.22V506h-8.97v7.44h-3.22v-17.35h3.22v7.16h8.97v-7.16H925.58z"/>
			<path class="st31" d="M936.19,496.08h3.22v17.35h-3.22V496.08z"/>
		</g>
		<g>
			<path class="st32" d="M536.07,475.35c1.55,0,2.82-0.22,3.82-0.65c0.99-0.43,1.74-1.08,2.23-1.96c0.5-0.87,0.84-1.97,1.02-3.31
				c0.19-1.33,0.28-2.9,0.28-4.7v-57.82c0-1.36-0.06-2.59-0.19-3.68c-0.13-1.09-0.4-2.02-0.84-2.79c-0.43-0.78-1.06-1.38-1.86-1.82
				c-0.81-0.43-1.89-0.65-3.26-0.65v-0.93h61.92v0.28l3.17,17.13l-0.75,0.28c-2.3-3.17-4.53-5.82-6.7-7.96
				c-2.17-2.14-4.55-3.86-7.12-5.17c-2.58-1.3-5.49-2.22-8.75-2.75c-3.26-0.53-7.06-0.79-11.41-0.79h-12.29v32.68h3.82
				c4.22,0,7.73-0.22,10.52-0.65c2.79-0.43,5.1-1.13,6.94-2.09c1.83-0.96,3.27-2.27,4.33-3.91c1.05-1.64,1.96-3.68,2.7-6.1h0.56
				v26.44h-0.56c-1.12-2.3-2.23-4.25-3.35-5.87c-1.12-1.61-2.53-2.93-4.24-3.96c-1.71-1.02-3.9-1.77-6.56-2.23
				c-2.67-0.47-6.11-0.7-10.33-0.7h-3.82v43.57h10.06c4.22,0,8.05-0.26,11.5-0.79c3.45-0.53,6.61-1.46,9.5-2.79
				c2.89-1.33,5.57-3.15,8.05-5.45c2.48-2.3,4.9-5.18,7.26-8.66l0.65,0.19l-3.17,18.53h-63.13V475.35z"/>
			<path class="st32" d="M610.56,461.01h0.74c0.37,1.8,0.9,3.63,1.58,5.49c0.68,1.86,1.55,3.55,2.61,5.07
				c1.05,1.52,2.3,2.76,3.72,3.72c1.43,0.96,3.07,1.44,4.93,1.44c2.73,0,4.89-0.61,6.47-1.82c1.58-1.21,2.78-2.82,3.58-4.84
				c0.81-2.02,1.32-4.34,1.54-6.98c0.22-2.64,0.36-5.41,0.42-8.33v-47.86c0-1.36-0.06-2.59-0.19-3.68c-0.13-1.09-0.4-2.02-0.84-2.79
				c-0.43-0.78-1.06-1.38-1.86-1.82c-0.81-0.43-1.89-0.65-3.26-0.65v-0.93c2.73,0.13,5,0.2,6.8,0.23c1.8,0.03,3.48,0.05,5.03,0.05
				c1.8,0,3.6-0.01,5.4-0.05c1.8-0.03,4.13-0.11,6.98-0.23v0.93c-1.37,0-2.45,0.2-3.26,0.61c-0.81,0.4-1.43,0.98-1.86,1.72
				c-0.43,0.75-0.71,1.66-0.84,2.75c-0.13,1.09-0.19,2.28-0.19,3.58v39.38c-0.12,10.55-2.45,18.51-6.98,23.88
				c-4.53,5.37-11.24,8.05-20.11,8.05c-4.28,0-9.06-0.65-14.34-1.96L610.56,461.01z"/>
			<path class="st32" d="M668,403.89c-0.19-1.33-0.53-2.44-1.02-3.31c-0.5-0.87-1.24-1.52-2.23-1.96c-0.99-0.43-2.27-0.65-3.82-0.65
				v-0.93c3.04,0.13,5.55,0.23,7.54,0.33c1.99,0.09,3.88,0.14,5.68,0.14c1.8,0,3.72-0.05,5.77-0.14c2.05-0.09,4.62-0.2,7.73-0.33
				v0.93c-1.55,0-2.81,0.2-3.77,0.61c-0.96,0.4-1.71,0.99-2.23,1.77c-0.53,0.78-0.9,1.77-1.12,2.98c-0.22,1.21-0.33,2.65-0.33,4.33
				v67.6h12.29c4.34,0,8.15-0.26,11.41-0.79c3.26-0.53,6.18-1.44,8.75-2.75c2.57-1.3,4.95-3.03,7.12-5.17
				c2.17-2.14,4.41-4.8,6.7-7.96c0.06,0,0.15,0.03,0.28,0.09c0.12,0.06,0.2,0.11,0.23,0.14c0.03,0.03,0.11,0.08,0.23,0.14
				L724.06,476v0.28h-61.92v-0.93c1.36,0,2.45-0.22,3.26-0.65c0.81-0.43,1.43-1.04,1.86-1.82c0.43-0.78,0.71-1.71,0.84-2.79
				c0.12-1.09,0.19-2.31,0.19-3.68v-57.82C668.28,406.79,668.19,405.22,668,403.89z"/>
			<path class="st32" d="M729.08,475.54c1.8-0.99,3.31-2.28,4.52-3.86c1.21-1.58,2.31-3.49,3.31-5.73
				c4.84-12.04,9.19-22.97,13.03-32.77c1.68-4.16,3.31-8.27,4.89-12.34c1.58-4.06,3.03-7.76,4.33-11.08c1.3-3.32,2.4-6.1,3.31-8.33
				c0.9-2.23,1.44-3.63,1.63-4.19c0.06-0.06,0.09-0.12,0.09-0.19h0.74l29.7,68.99c1.43,3.29,2.75,5.59,3.96,6.89
				c1.21,1.3,2.44,2.17,3.68,2.61v0.75c-2.42-0.19-4.58-0.31-6.47-0.37c-1.89-0.06-3.74-0.09-5.54-0.09c-1.8,0-3.69,0.03-5.68,0.09
				c-1.99,0.06-4.28,0.19-6.89,0.37c-3.1,0-5.66-0.79-7.68-2.37c-2.02-1.58-3.76-3.54-5.21-5.87c-1.46-2.33-2.75-4.84-3.86-7.54
				c-1.12-2.7-2.33-5.17-3.63-7.4c-1.3-2.23-2.86-4.05-4.66-5.45c-1.8-1.4-4.07-2-6.8-1.82c-0.81,2.11-1.6,4.14-2.37,6.1
				c-0.78,1.96-1.49,3.77-2.14,5.45c-0.65,1.68-1.24,3.17-1.77,4.47c-0.53,1.3-0.95,2.36-1.26,3.17c-0.87,2.3-1.01,4.42-0.42,6.38
				c0.59,1.96,2.22,3.34,4.89,4.14v0.75c-1.37-0.12-2.55-0.22-3.54-0.28c-0.99-0.06-1.92-0.09-2.79-0.09
				c-1.18,0-2.33,0.03-3.45,0.09c-1.12,0.06-2.42,0.16-3.91,0.28V475.54z M758.88,413.15c-0.5,1.18-1.18,2.9-2.05,5.17
				c-0.87,2.27-1.88,4.84-3.03,7.73c-1.15,2.89-2.37,5.94-3.68,9.17c-1.3,3.23-2.58,6.42-3.82,9.59c2.36-0.06,4.53,0.5,6.52,1.68
				c2.05,1.37,3.74,3.24,5.07,5.63c1.33,2.39,2.59,4.89,3.77,7.5c0.81,1.8,1.66,3.63,2.56,5.49c0.9,1.86,1.97,3.54,3.21,5.03
				c1.24,1.49,2.7,2.72,4.38,3.68c1.68,0.96,3.63,1.44,5.87,1.44c1.3,0,2.31-0.31,3.03-0.93c0.71-0.62,1.19-1.41,1.44-2.37
				c0.25-0.96,0.26-2.05,0.05-3.26c-0.22-1.21-0.57-2.47-1.07-3.77c-0.06-0.12-0.09-0.22-0.09-0.28c0-0.06-0.03-0.12-0.09-0.19
				c-0.06-0.06-0.09-0.12-0.09-0.19c-2.86-6.64-5.28-12.29-7.26-16.95c-1.99-4.66-3.68-8.58-5.07-11.78c-1.4-3.2-2.53-5.83-3.4-7.91
				c-0.87-2.08-1.65-3.91-2.33-5.49c-0.68-1.58-1.32-3.04-1.91-4.38C760.29,416.43,759.62,414.89,758.88,413.15z"/>
			<path class="st32" d="M813.63,403.89c-0.19-1.33-0.53-2.44-1.02-3.31c-0.5-0.87-1.24-1.52-2.23-1.96
				c-0.99-0.43-2.27-0.65-3.82-0.65v-0.93c3.04,0.13,5.55,0.23,7.54,0.33c1.99,0.09,3.88,0.14,5.68,0.14c1.8,0,3.72-0.05,5.77-0.14
				c2.05-0.09,4.62-0.2,7.73-0.33v0.93c-1.55,0-2.81,0.2-3.77,0.61c-0.96,0.4-1.71,0.99-2.23,1.77c-0.53,0.78-0.9,1.77-1.12,2.98
				c-0.22,1.21-0.33,2.65-0.33,4.33v67.6h12.29c4.34,0,8.15-0.26,11.41-0.79c3.26-0.53,6.18-1.44,8.75-2.75
				c2.57-1.3,4.95-3.03,7.12-5.17c2.17-2.14,4.41-4.8,6.7-7.96c0.06,0,0.15,0.03,0.28,0.09c0.12,0.06,0.2,0.11,0.23,0.14
				c0.03,0.03,0.11,0.08,0.23,0.14L869.68,476v0.28h-61.92v-0.93c1.36,0,2.45-0.22,3.26-0.65c0.81-0.43,1.43-1.04,1.86-1.82
				c0.43-0.78,0.71-1.71,0.84-2.79c0.12-1.09,0.19-2.31,0.19-3.68v-57.82C813.9,406.79,813.81,405.22,813.63,403.89z"/>
			<path class="st32" d="M881.31,452.17l0.75,0.09c0.5,3.35,1.4,6.44,2.7,9.26c1.3,2.83,2.98,5.26,5.03,7.31
				c2.05,2.05,4.45,3.65,7.22,4.8c2.76,1.15,5.85,1.72,9.26,1.72c3.04,0,5.91-0.33,8.61-0.98c2.7-0.65,5.06-1.66,7.08-3.03
				c2.02-1.36,3.62-3.09,4.8-5.17c1.18-2.08,1.77-4.58,1.77-7.5c0-2.73-0.73-5.01-2.19-6.84c-1.46-1.83-3.37-3.4-5.73-4.7
				c-2.36-1.3-5.06-2.44-8.1-3.4c-3.04-0.96-6.16-1.92-9.36-2.89c-3.2-0.96-6.32-2.03-9.36-3.21c-3.04-1.18-5.74-2.64-8.1-4.38
				c-2.36-1.74-4.27-3.83-5.73-6.29c-1.46-2.45-2.19-5.48-2.19-9.08c0-3.85,0.92-7.09,2.75-9.73c1.83-2.64,4.22-4.78,7.17-6.42
				c2.95-1.64,6.28-2.84,10.01-3.58c3.72-0.75,7.51-1.12,11.36-1.12c5.09,0,9.78,0.53,14.06,1.58c4.28,1.06,8.63,2.67,13.03,4.84
				l-4.66,16.11l-0.93-0.09c-0.13-3.04-0.76-5.88-1.91-8.52c-1.15-2.64-2.69-4.9-4.61-6.8c-1.92-1.89-4.18-3.38-6.75-4.47
				c-2.58-1.08-5.35-1.63-8.33-1.63c-2.73,0-5.34,0.36-7.82,1.07c-2.48,0.71-4.69,1.75-6.61,3.12c-1.92,1.37-3.45,3.07-4.56,5.12
				c-1.12,2.05-1.68,4.38-1.68,6.98c0,2.55,0.73,4.67,2.19,6.38c1.46,1.71,3.38,3.14,5.77,4.28c2.39,1.15,5.12,2.16,8.19,3.03
				c3.07,0.87,6.21,1.75,9.4,2.65c3.2,0.9,6.33,1.91,9.4,3.03c3.07,1.12,5.8,2.53,8.19,4.24c2.39,1.71,4.31,3.82,5.77,6.33
				c1.46,2.51,2.19,5.6,2.19,9.26c0,4.28-0.9,7.88-2.7,10.8c-1.8,2.92-4.22,5.26-7.26,7.03c-3.04,1.77-6.56,3.03-10.57,3.77
				c-4,0.75-8.18,1.12-12.52,1.12c-5.34,0-10.41-0.62-15.22-1.86c-4.81-1.24-9.48-3.26-14.01-6.05L881.31,452.17z"/>
		</g>
	</g>
</g>
</svg>
